<?xml version="1.0" ?><svg enable-background="new 0 0 515.91 728.5" height="512" id="Layer_1" version="1.1" viewBox="0 0 512.00003 512" width="512" xml:space="preserve" xmlns="http://www.w3.org/2000/svg" xmlns:cc="http://creativecommons.org/ns#" xmlns:dc="http://purl.org/dc/elements/1.1/" xmlns:inkscape="http://www.inkscape.org/namespaces/inkscape" xmlns:rdf="http://www.w3.org/1999/02/22-rdf-syntax-ns#" xmlns:sodipodi="http://sodipodi.sourceforge.net/DTD/sodipodi-0.dtd" xmlns:svg="http://www.w3.org/2000/svg"><defs id="defs7"/><path d="m -413.3771,-150.31979 -57.95812,-24.00703 -24.00704,-57.95812 24.00703,-57.95812 57.95812,-24.00704 57.95812,24.00704 24.00704,57.95812 -24.00704,57.95811 z" id="path3756" style="fill:#000000;fill-opacity:1;fill-rule:nonzero;stroke:none" transform="matrix(3.1232785,-1.2937043,1.2937043,3.1232785,1847.5999,446.70283)"/><path d="m 255.96756,52.574017 c -15.3557,37.647954 -24.6175,62.274233 -41.7141,98.803113 10.4824,11.11125 23.349,24.05083 44.24411,38.66492 -22.46441,-9.24399 -37.78791,-18.5247 -49.23931,-28.15533 -21.8803,45.6566 -56.1604,110.69238 -125.726011,235.68732 54.676211,-31.56545 97.060111,-51.0259 136.559911,-58.45149 -1.696,-7.29506 -2.6605,-15.1861 -2.595,-23.41953 l 0.065,-1.7516 c 0.8677,-35.02952 19.09,-61.96722 40.67611,-60.13821 21.5861,1.82902 38.3647,31.72582 37.4971,66.75537 -0.1631,6.59145 -0.9065,12.93234 -2.2057,18.81346 39.0709,7.64297 81.0017,27.0536 134.93811,58.192 -10.63531,-19.58012 -20.12811,-37.23017 -29.19341,-54.04007 -14.2792,-11.06742 -29.1733,-25.47171 -59.5543,-41.06525 20.8822,5.42606 35.8334,11.68629 47.4876,18.68371 -92.1692,-171.60337 -99.633,-194.4059 -131.24011,-268.578413 z" id="path2518" style="fill:#ffffff;fill-opacity:1;fill-rule:evenodd;stroke:none"/></svg>